<?xml version="1.0" encoding="iso-8859-1"?>
<!-- Generator: Adobe Illustrator 19.0.0, SVG Export Plug-In . SVG Version: 6.00 Build 0)  -->
<!-- License: CC0. Made by SVG Repo: https://www.svgrepo.com/svg/278554/paste -->
<svg xmlns="http://www.w3.org/2000/svg" width="24px" height="24px" fill="currentColor" viewBox="0 0 256 256">
        <path
          d="M224.85,49.55l-96-32a7.92,7.92,0,0,0-5.7,0l-96,32A8,8,0,0,0,24,57.26V128c0,84.6,71.17,115.78,98.83,124.43a24.48,24.48,0,0,0,14.34,0C164.83,243.78,236,212.6,236,128V57.26A8,8,0,0,0,224.85,49.55ZM220,128c0,72.69-61.24,100.8-86.78,108.72a8.38,8.38,0,0,1-4.44,0C103.24,228.8,42,200.69,42,128V61.69l86-28.67,86,28.67Zm-40.49-34.83a8,8,0,0,1-1.68,11.16L112,167.78a8,8,0,0,1-10.15-.65l-32-28a8,8,0,1,1,10.64-11.7l26.1,22.84,61.67-46.25A8,8,0,0,1,179.51,93.17Z" fill="white"></path>
      </svg>